<?xml version="1.0" encoding="UTF-8" standalone="no"?>
<!-- Created with Inkscape (http://www.inkscape.org/) -->

<svg
   width="26.458332mm"
   height="26.458334mm"
   viewBox="0 0 26.458332 26.458334"
   version="1.1"
   id="svg1"
   xml:space="preserve"
   xmlns="http://www.w3.org/2000/svg"
   xmlns:svg="http://www.w3.org/2000/svg"><defs
     id="defs1" /><g
     id="layer1"><path
       style="fill:#000000;stroke-width:0"
       d="m 15.356228,0.93812302 c -0.917968,0.005843 -1.739759,-0.005937 -2.733843,0.0120788 C 7.4136341,0.94759949 0.81574494,5.7128039 0.81859773,13.310166 c 0.002858,7.611131 6.05230907,12.407351 12.52536927,12.480795 6.628404,0.07521 12.259144,-6.02376 12.259141,-11.497671 -5.55e-4,-1.166919 4.89e-4,-2.213763 0,-3.196865 -0.0012,-0.851657 -0.78587,-1.4480191 -1.477645,-1.4575132 -0.714919,-0.00981 -1.490458,0.7361222 -1.489723,1.3528292 -9.33e-4,0.938518 -0.04348,2.097951 -0.04457,3.115887 0.0062,3.314304 -3.480048,8.516903 -9.218895,8.687782 C 8.8607856,22.929744 3.7548351,19.186034 3.7817714,13.397 3.8086561,7.6190748 8.5881331,4.0896706 12.732121,3.9926872 c 0,0 1.822923,-0.039017 2.692554,-0.030829 0.521619,-0.0049 1.300641,-0.6370616 1.292435,-1.5138808 -0.0078,-0.8345639 -0.680838,-1.5256893 -1.360882,-1.50985438 z"
       id="path1" /><path
       style="fill:#000000;stroke-width:0"
       d="m 13.198143,12.610306 c 0,0 -2.256284,-2.546731 -2.762028,-3.1082876 C 9.9831618,9.0487204 9.1619462,9.1223474 8.6645524,9.5422811 8.239327,9.9012853 8.0496272,10.624678 8.3666078,11.185003 c 0.434798,0.748307 2.8709172,4.969402 3.3820742,5.846157 0.351179,0.478609 0.834569,0.82831 1.513881,0.829414 0.633985,0.001 0.999333,-0.314605 1.336725,-0.591864 C 14.979407,16.706002 23.843666,3.4739474 24.33483,2.7378697 24.694597,2.1031925 24.599161,1.5335036 24.06507,1.0065698 23.647799,0.59489057 22.722824,0.48877775 22.325717,0.95020184 21.725409,1.7121459 13.198143,12.610306 13.198143,12.610306 Z"
       id="path2" /></g></svg>
